<?xml version="1.0" standalone="no"?>
<!DOCTYPE svg PUBLIC "-//W3C//DTD SVG 20010904//EN"
 "http://www.w3.org/TR/2001/REC-SVG-20010904/DTD/svg10.dtd">
<svg version="1.0" xmlns="http://www.w3.org/2000/svg"
 width="1000.000000pt" height="1000.000000pt" viewBox="0 0 1000.000000 1000.000000"
 preserveAspectRatio="xMidYMid meet">
<metadata>
Created by potrace 1.15, written by Peter Selinger 2001-2017
</metadata>
<g transform="translate(0.000000,1000.000000) scale(0.100000,-0.100000)"
fill="#000000" stroke="none">
<path d="M4590 9989 c-1549 -134 -2925 -951 -3773 -2240 -463 -703 -734 -1496
-807 -2354 -13 -155 -13 -635 0 -790 123 -1451 833 -2743 1986 -3610 751 -565
1648 -903 2609 -985 155 -13 635 -13 790 0 1451 123 2743 833 3610 1986 565
751 903 1648 985 2609 13 155 13 635 0 790 -123 1451 -833 2743 -1986 3610
-751 565 -1648 903 -2609 985 -139 11 -666 11 -805 -1z m1727 -2890 c64 -24
110 -90 138 -199 26 -102 24 -179 -8 -233 -32 -55 -62 -79 -242 -194 -481
-308 -657 -378 -657 -259 0 34 24 62 121 139 47 37 102 81 121 98 l35 29 -30
-6 c-55 -12 -291 -102 -416 -158 -320 -145 -645 -360 -924 -613 -329 -298
-584 -663 -561 -804 9 -55 41 -115 72 -136 58 -37 178 -6 301 78 60 42 1537
1163 1579 1199 16 14 45 32 63 40 31 12 37 11 128 -35 115 -59 163 -100 163
-142 0 -34 -89 -220 -182 -381 -74 -128 -203 -333 -445 -702 -98 -151 -183
-282 -188 -290 -7 -11 -1 -9 20 4 60 39 870 562 884 570 11 7 13 -4 9 -66 -11
-165 -69 -216 -799 -710 -347 -234 -414 -283 -455 -334 -101 -126 -248 -285
-385 -419 -327 -318 -576 -473 -701 -436 -134 41 -155 219 -50 414 47 88 143
208 229 288 122 112 334 260 445 310 50 22 377 476 531 736 69 116 161 293
155 298 -3 3 -105 -70 -461 -333 -516 -380 -693 -460 -900 -406 -249 64 -387
266 -387 566 0 123 17 220 62 346 38 109 129 289 206 407 367 566 1091 1037
1910 1245 129 33 221 51 482 93 50 8 109 7 137 -4z"/>
</g>
</svg>
